<svg width="83" height="24" viewBox="0 0 83 24" fill="none" xmlns="http://www.w3.org/2000/svg">
<path d="M13.5739 6.63636C13.446 5.55682 12.9276 4.71875 12.0185 4.12216C11.1094 3.52557 9.99432 3.22727 8.6733 3.22727C7.70739 3.22727 6.86222 3.38352 6.13778 3.69602C5.42045 4.00852 4.85938 4.43821 4.45455 4.98508C4.05682 5.53196 3.85795 6.15341 3.85795 6.84943C3.85795 7.43182 3.99645 7.93253 4.27344 8.35156C4.55753 8.76349 4.91974 9.10795 5.36009 9.38494C5.80043 9.65483 6.26207 9.87855 6.74503 10.0561C7.22798 10.2266 7.67188 10.3651 8.0767 10.4716L10.2926 11.0682C10.8608 11.2173 11.4929 11.4233 12.1889 11.6861C12.892 11.9489 13.5632 12.3075 14.2024 12.7621C14.8487 13.2095 15.3814 13.7848 15.8004 14.4879C16.2195 15.1911 16.429 16.054 16.429 17.0767C16.429 18.2557 16.12 19.321 15.5021 20.2727C14.8913 21.2244 13.9964 21.9808 12.8175 22.5419C11.6456 23.103 10.2216 23.3835 8.54545 23.3835C6.98295 23.3835 5.62997 23.1314 4.48651 22.6271C3.35014 22.1229 2.45526 21.4197 1.80185 20.5178C1.15554 19.6158 0.789773 18.5682 0.704546 17.375H3.43182C3.50284 18.1989 3.77983 18.8807 4.26278 19.4205C4.75284 19.9531 5.37074 20.3509 6.11648 20.6136C6.86932 20.8693 7.67898 20.9972 8.54545 20.9972C9.55398 20.9972 10.4595 20.8338 11.2621 20.5071C12.0646 20.1733 12.7003 19.7116 13.169 19.1222C13.6378 18.5256 13.8722 17.8295 13.8722 17.0341C13.8722 16.3097 13.6697 15.7202 13.2649 15.2656C12.8601 14.8111 12.3274 14.4418 11.6669 14.1577C11.0064 13.8736 10.2926 13.625 9.52557 13.4119L6.84091 12.6449C5.13636 12.1548 3.78693 11.4553 2.79261 10.5462C1.7983 9.63707 1.30114 8.44744 1.30114 6.97727C1.30114 5.75568 1.63139 4.69034 2.2919 3.78125C2.95952 2.86506 3.8544 2.15483 4.97656 1.65057C6.10582 1.1392 7.36648 0.883522 8.75852 0.883522C10.1648 0.883522 11.4148 1.13565 12.5085 1.63991C13.6023 2.13707 14.4688 2.81889 15.108 3.68537C15.7543 4.55185 16.0952 5.53551 16.1307 6.63636H13.5739ZM27.5485 6.63636V8.76704H19.0684V6.63636H27.5485ZM21.54 2.71591H24.0542V18.3125C24.0542 19.0227 24.1571 19.5554 24.3631 19.9105C24.5762 20.2585 24.8461 20.4929 25.1728 20.6136C25.5066 20.7273 25.8581 20.7841 26.2275 20.7841C26.5044 20.7841 26.7317 20.7699 26.9093 20.7415C27.0868 20.706 27.2289 20.6776 27.3354 20.6562L27.8468 22.9148C27.6763 22.9787 27.4384 23.0426 27.133 23.1065C26.8276 23.1776 26.4405 23.2131 25.9718 23.2131C25.2615 23.2131 24.5655 23.0604 23.8837 22.755C23.209 22.4496 22.6479 21.9844 22.2005 21.3594C21.7601 20.7344 21.54 19.946 21.54 18.9943V2.71591ZM37.8024 23.3409C36.3251 23.3409 35.0289 22.9893 33.9139 22.2862C32.8059 21.5831 31.9395 20.5994 31.3145 19.3352C30.6966 18.071 30.3876 16.5937 30.3876 14.9034C30.3876 13.1989 30.6966 11.7109 31.3145 10.4396C31.9395 9.16832 32.8059 8.18111 33.9139 7.47798C35.0289 6.77486 36.3251 6.4233 37.8024 6.4233C39.2797 6.4233 40.5723 6.77486 41.6802 7.47798C42.7953 8.18111 43.6618 9.16832 44.2797 10.4396C44.9047 11.7109 45.2172 13.1989 45.2172 14.9034C45.2172 16.5937 44.9047 18.071 44.2797 19.3352C43.6618 20.5994 42.7953 21.5831 41.6802 22.2862C40.5723 22.9893 39.2797 23.3409 37.8024 23.3409ZM37.8024 21.0824C38.9245 21.0824 39.8478 20.7947 40.5723 20.2195C41.2967 19.6442 41.8329 18.8878 42.1809 17.9503C42.5289 17.0128 42.7029 15.9972 42.7029 14.9034C42.7029 13.8097 42.5289 12.7905 42.1809 11.8459C41.8329 10.9013 41.2967 10.1378 40.5723 9.5554C39.8478 8.97301 38.9245 8.68182 37.8024 8.68182C36.6802 8.68182 35.7569 8.97301 35.0325 9.5554C34.3081 10.1378 33.7718 10.9013 33.4238 11.8459C33.0758 12.7905 32.9018 13.8097 32.9018 14.9034C32.9018 15.9972 33.0758 17.0128 33.4238 17.9503C33.7718 18.8878 34.3081 19.6442 35.0325 20.2195C35.7569 20.7947 36.6802 21.0824 37.8024 21.0824ZM49.055 23V6.63636H51.484V9.10795H51.6545C51.9528 8.2983 52.4925 7.64134 53.2738 7.13707C54.055 6.63281 54.9357 6.38068 55.9158 6.38068C56.1005 6.38068 56.3313 6.38423 56.6083 6.39133C56.8853 6.39844 57.0948 6.40909 57.2369 6.4233V8.98011C57.1516 8.95881 56.9563 8.92685 56.6509 8.88423C56.3526 8.83452 56.0366 8.80966 55.7028 8.80966C54.9073 8.80966 54.1971 8.97656 53.5721 9.31037C52.9542 9.63707 52.4641 10.0916 52.1019 10.674C51.7468 11.2493 51.5692 11.9062 51.5692 12.6449V23H49.055ZM66.5799 23.3409C65.0032 23.3409 63.6431 22.9929 62.4996 22.2969C61.3633 21.5938 60.4862 20.6136 59.8683 19.3565C59.2575 18.0923 58.9521 16.6222 58.9521 14.946C58.9521 13.2699 59.2575 11.7926 59.8683 10.5142C60.4862 9.22869 61.3455 8.22727 62.4464 7.50994C63.5543 6.78551 64.8469 6.4233 66.3242 6.4233C67.1765 6.4233 68.0181 6.56534 68.8491 6.84943C69.68 7.13352 70.4364 7.59517 71.1183 8.23438C71.8001 8.86648 72.3434 9.70455 72.7482 10.7486C73.1531 11.7926 73.3555 13.0781 73.3555 14.6051V15.6705H60.7418V13.4972H70.7987C70.7987 12.5739 70.614 11.75 70.2447 11.0256C69.8825 10.3011 69.364 9.7294 68.6893 9.31037C68.0217 8.89133 67.2333 8.68182 66.3242 8.68182C65.3228 8.68182 64.4563 8.9304 63.7248 9.42756C63.0004 9.91761 62.4428 10.5568 62.0522 11.3452C61.6616 12.1335 61.4663 12.9787 61.4663 13.8807V15.3295C61.4663 16.5653 61.6793 17.6129 62.1055 18.4723C62.5387 19.3246 63.1388 19.9744 63.9059 20.4219C64.6729 20.8622 65.5643 21.0824 66.5799 21.0824C67.2404 21.0824 67.837 20.9901 68.3697 20.8054C68.9094 20.6136 69.3746 20.3295 69.7653 19.9531C70.1559 19.5696 70.4577 19.0937 70.6708 18.5256L73.0998 19.2074C72.8441 20.0312 72.4144 20.7557 71.8107 21.3807C71.207 21.9986 70.4613 22.4815 69.5735 22.8295C68.6857 23.1705 67.6879 23.3409 66.5799 23.3409Z" fill="white"/>
<path d="M79.9769 23.2102C79.3287 23.2102 78.7725 22.9781 78.3082 22.5138C77.844 22.0496 77.6119 21.4934 77.6119 20.8452C77.6119 20.197 77.844 19.6407 78.3082 19.1765C78.7725 18.7122 79.3287 18.4801 79.9769 18.4801C80.6251 18.4801 81.1813 18.7122 81.6456 19.1765C82.1098 19.6407 82.342 20.197 82.342 20.8452C82.342 21.2744 82.2325 21.6686 82.0135 22.0277C81.8033 22.3868 81.5186 22.6759 81.1594 22.8949C80.8091 23.1051 80.4149 23.2102 79.9769 23.2102Z" fill="#0BBEF2"/>
</svg>
